# This file uses centimeters as units for non-parametric coordinates.

mtllib crossbowbolt.mtl
g default
v 0.100000 1.429171 -5.976818
v -0.100000 1.429171 -5.976818
v -0.200000 1.255966 -5.976818
v -0.100000 1.082761 -5.976818
v 0.100000 1.082761 -5.976818
v 0.200000 1.255966 -5.976818
v 0.100000 1.429171 5.976818
v -0.100000 1.429171 5.976818
v -0.200000 1.255966 5.976818
v -0.100000 1.082761 5.976818
v 0.100000 1.082761 5.976818
v 0.200000 1.255966 5.976818
v 0.000000 1.255966 -5.976818
v 0.000000 1.255966 5.976818
vt 0.578125 0.020934
vt 0.421875 0.020934
vt 0.343750 0.156250
vt 0.421875 0.291566
vt 0.578125 0.291566
vt 0.656250 0.156250
vt 0.375000 0.312500
vt 0.416667 0.312500
vt 0.458333 0.312500
vt 0.500000 0.312500
vt 0.541667 0.312500
vt 0.583333 0.312500
vt 0.625000 0.312500
vt 0.375000 0.688440
vt 0.416667 0.688440
vt 0.458333 0.688440
vt 0.500000 0.688440
vt 0.541667 0.688440
vt 0.583333 0.688440
vt 0.625000 0.688440
vt 0.578125 0.708434
vt 0.421875 0.708434
vt 0.343750 0.843750
vt 0.421875 0.979066
vt 0.578125 0.979066
vt 0.656250 0.843750
vt 0.500000 0.150000
vt 0.500000 0.837500
vn 0.000000 1.000000 -0.000000
vn 0.000000 1.000000 -0.000000
vn 0.000000 1.000000 -0.000000
vn 0.000000 1.000000 -0.000000
vn -0.866025 0.500000 -0.000000
vn -0.866025 0.500000 -0.000000
vn -0.866025 0.500000 -0.000000
vn -0.866025 0.500000 -0.000000
vn -0.866026 -0.500000 0.000000
vn -0.866026 -0.500000 0.000000
vn -0.866026 -0.500000 0.000000
vn -0.866026 -0.500000 0.000000
vn -0.000000 -1.000000 0.000000
vn -0.000000 -1.000000 0.000000
vn -0.000000 -1.000000 0.000000
vn -0.000000 -1.000000 0.000000
vn 0.866025 -0.500000 0.000000
vn 0.866025 -0.500000 0.000000
vn 0.866025 -0.500000 0.000000
vn 0.866025 -0.500000 0.000000
vn 0.866026 0.500000 -0.000000
vn 0.866026 0.500000 -0.000000
vn 0.866026 0.500000 -0.000000
vn 0.866026 0.500000 -0.000000
vn 0.000000 -0.000001 -1.000000
vn 0.000000 0.000000 -1.000000
vn 0.000000 -0.000000 -1.000000
vn 0.000000 -0.000001 -1.000000
vn 0.000000 -0.000000 -1.000000
vn 0.000000 0.000001 -1.000000
vn 0.000000 0.000001 -1.000000
vn 0.000000 -0.000001 1.000000
vn 0.000000 0.000000 1.000000
vn 0.000000 0.000000 1.000000
vn 0.000000 0.000001 1.000000
vn 0.000000 0.000001 1.000000
vn 0.000000 0.000001 1.000000
vn 0.000000 0.000000 1.000000
s off
g pCylinder1
usemtl lambert3SG
f 1/7/1 2/8/2 8/15/3 7/14/4
f 2/8/5 3/9/6 9/16/7 8/15/8
f 3/9/9 4/10/10 10/17/11 9/16/12
f 4/10/13 5/11/14 11/18/15 10/17/16
f 5/11/17 6/12/18 12/19/19 11/18/20
f 6/12/21 1/13/22 7/20/23 12/19/24
s 1
f 2/2/25 1/1/26 13/27/27
f 3/3/28 2/2/25 13/27/27
f 4/4/29 3/3/28 13/27/27
f 5/5/30 4/4/29 13/27/27
f 6/6/31 5/5/30 13/27/27
f 1/1/26 6/6/31 13/27/27
s 2
f 7/25/32 8/24/33 14/28/34
f 8/24/33 9/23/35 14/28/34
f 9/23/35 10/22/36 14/28/34
f 10/22/36 11/21/37 14/28/34
f 11/21/37 12/26/38 14/28/34
f 12/26/38 7/25/32 14/28/34
g default
v -0.813814 1.250000 5.877783
v 0.813814 1.250000 5.877783
v -0.813814 1.250000 3.492200
v 0.813814 1.250000 3.492200
vt 0.000000 0.000000
vt 1.000000 0.000000
vt 0.000000 1.000000
vt 1.000000 1.000000
vn 0.000000 1.000000 0.000000
vn 0.000000 1.000000 0.000000
vn 0.000000 1.000000 0.000000
vn 0.000000 1.000000 0.000000
s off
g pPlane1
usemtl lambert2SG
f 15/29/39 16/30/40 18/32/41 17/31/42
g default
v 0.000000 1.018199 -5.910488
v -0.600315 1.250000 -5.910488
v -0.000000 1.481801 -5.910488
v 0.600315 1.250000 -5.910488
v 0.000000 1.250000 -7.470999
vt 0.500000 0.000000
vt 0.250000 0.250000
vt 0.500000 0.500000
vt 0.750000 0.250000
vt 0.250000 0.500000
vt 0.375000 0.500000
vt 0.500000 0.500000
vt 0.625000 0.500000
vt 0.750000 0.500000
vt 0.500000 1.000000
vn 0.000000 -0.000000 1.000000
vn 0.000000 -0.000000 1.000000
vn 0.000000 -0.000000 1.000000
vn 0.000000 -0.000000 1.000000
vn -0.356802 -0.924041 -0.137259
vn -0.356802 -0.924041 -0.137259
vn -0.356802 -0.924041 -0.137259
vn -0.356803 0.924041 -0.137259
vn -0.356803 0.924041 -0.137259
vn -0.356803 0.924041 -0.137259
vn 0.356803 0.924041 -0.137259
vn 0.356803 0.924041 -0.137259
vn 0.356803 0.924041 -0.137259
vn 0.356803 -0.924041 -0.137259
vn 0.356803 -0.924041 -0.137259
vn 0.356803 -0.924041 -0.137259
s off
g pPyramid1
usemtl initialShadingGroup
f 19/33/43 22/36/44 21/35/45 20/34/46
f 19/37/47 20/38/48 23/42/49
f 20/38/50 21/39/51 23/42/52
f 21/39/53 22/40/54 23/42/55
f 22/40/56 19/41/57 23/42/58
